<svg width="38" height="31" viewBox="0 0 38 31" fill="none" xmlns="http://www.w3.org/2000/svg">
<g filter="url(#filter0_d_54_3)">
<path d="M34 0L33.0713 2.5H30.66L26.3175 17.5H9.76875L4 3.75H25.015L24.31 6.25H7.76L11.4313 15H24.4662L28.7563 0H34ZM14.625 18.75C13.59 18.75 12.75 19.59 12.75 20.625C12.75 21.6612 13.59 22.5 14.625 22.5C15.66 22.5 16.5 21.6612 16.5 20.625C16.5 19.59 15.66 18.75 14.625 18.75ZM23.25 10L20.875 18.75C19.84 18.75 19 19.5888 19 20.625C19 21.6612 19.84 22.5 20.875 22.5C21.91 22.5 22.75 21.6612 22.75 20.625C22.75 19.59 21.91 18.75 20.875 18.75L23.25 10Z" fill="white"/>
</g>
<defs>
<filter id="filter0_d_54_3" x="0" y="0" width="38" height="30.5" filterUnits="userSpaceOnUse" color-interpolation-filters="sRGB">
<feFlood flood-opacity="0" result="BackgroundImageFix"/>
<feColorMatrix in="SourceAlpha" type="matrix" values="0 0 0 0 0 0 0 0 0 0 0 0 0 0 0 0 0 0 127 0" result="hardAlpha"/>
<feOffset dy="4"/>
<feGaussianBlur stdDeviation="2"/>
<feComposite in2="hardAlpha" operator="out"/>
<feColorMatrix type="matrix" values="0 0 0 0 0 0 0 0 0 0 0 0 0 0 0 0 0 0 0.25 0"/>
<feBlend mode="normal" in2="BackgroundImageFix" result="effect1_dropShadow_54_3"/>
<feBlend mode="normal" in="SourceGraphic" in2="effect1_dropShadow_54_3" result="shape"/>
</filter>
</defs>
</svg>
